<svg xmlns="http://www.w3.org/2000/svg" viewBox="0 0 64 64">
  <defs>
    <linearGradient id="pd-gradient" x1="8" x2="56" y1="8" y2="56" gradientUnits="userSpaceOnUse">
      <stop offset="0" stop-color="#c97a52" />
      <stop offset="1" stop-color="#9d5c78" />
    </linearGradient>
  </defs>
  <rect width="64" height="64" rx="18" fill="#f3e9df" />
  <rect x="6" y="6" width="52" height="52" rx="15" fill="url(#pd-gradient)" />
  <g opacity=".45">
    <circle cx="32" cy="32" r="22" fill="none" stroke="#fff3ea" stroke-dasharray="3 6" stroke-linecap="round">
      <animateTransform
        attributeName="transform"
        attributeType="XML"
        type="rotate"
        from="0 32 32"
        to="360 32 32"
        dur="8s"
        repeatCount="indefinite"
      />
    </circle>
    <circle cx="54" cy="32" r="2.3" fill="#fff7f1">
      <animateTransform
        attributeName="transform"
        attributeType="XML"
        type="rotate"
        from="0 32 32"
        to="360 32 32"
        dur="8s"
        repeatCount="indefinite"
      />
      <animate attributeName="opacity" values=".7;1;.7" dur="1.8s" repeatCount="indefinite" />
    </circle>
  </g>
  <path
    d="M21 18h11.5c7.1 0 11.5 3.9 11.5 10.1 0 6.3-4.4 10.2-11.5 10.2h-5.1V46H21zm11.1 15c3.5 0 5.5-1.7 5.5-4.9 0-3.1-2-4.8-5.5-4.8h-4.7V33z"
    fill="#fff7f1"
  />
  <path
    d="M34 18h7.6c8.8 0 14.4 5.2 14.4 14s-5.6 14-14.4 14H34zm7.1 22.7c5.3 0 8.4-3.1 8.4-8.7s-3.1-8.7-8.4-8.7h-.7v17.4z"
    fill="#fff0e6"
    opacity=".9"
  >
    <animate attributeName="opacity" values=".86;1;.86" dur="2.2s" repeatCount="indefinite" />
  </path>
</svg>
